<mxfile host="app.diagrams.net" modified="2022-02-07T07:27:23.591Z" agent="5.0 (Macintosh; Intel Mac OS X 10_15_7) AppleWebKit/537.36 (KHTML, like Gecko) Chrome/98.0.4758.80 Safari/537.36" etag="traf-hSBlO0U6-d3Cijs" version="16.5.2" type="github">
  <diagram id="qmSMYNQI2_1kewA7SLjB" name="Page-1">
    <mxGraphModel dx="946" dy="500" grid="1" gridSize="10" guides="1" tooltips="1" connect="1" arrows="1" fold="1" page="1" pageScale="1" pageWidth="850" pageHeight="1100" math="0" shadow="0">
      <root>
        <mxCell id="0" />
        <mxCell id="1" parent="0" />
        <mxCell id="OpJOFbmrDEtBV6ml9rER-8" value="Call" style="edgeStyle=orthogonalEdgeStyle;rounded=0;orthogonalLoop=1;jettySize=auto;html=1;entryX=0;entryY=0.5;entryDx=0;entryDy=0;" edge="1" parent="1" source="OpJOFbmrDEtBV6ml9rER-1" target="OpJOFbmrDEtBV6ml9rER-3">
          <mxGeometry relative="1" as="geometry" />
        </mxCell>
        <mxCell id="OpJOFbmrDEtBV6ml9rER-1" value="Actor" style="shape=umlActor;verticalLabelPosition=bottom;verticalAlign=top;html=1;outlineConnect=0;" vertex="1" parent="1">
          <mxGeometry x="160" y="240" width="30" height="60" as="geometry" />
        </mxCell>
        <mxCell id="OpJOFbmrDEtBV6ml9rER-2" value="Old Logic Contract" style="rounded=0;whiteSpace=wrap;html=1;dashed=1;" vertex="1" parent="1">
          <mxGeometry x="540" y="240" width="120" height="60" as="geometry" />
        </mxCell>
        <mxCell id="OpJOFbmrDEtBV6ml9rER-4" style="edgeStyle=orthogonalEdgeStyle;rounded=0;orthogonalLoop=1;jettySize=auto;html=1;" edge="1" parent="1" source="OpJOFbmrDEtBV6ml9rER-3" target="OpJOFbmrDEtBV6ml9rER-2">
          <mxGeometry relative="1" as="geometry" />
        </mxCell>
        <mxCell id="OpJOFbmrDEtBV6ml9rER-7" value="Delegate Call" style="edgeLabel;html=1;align=center;verticalAlign=middle;resizable=0;points=[];" vertex="1" connectable="0" parent="OpJOFbmrDEtBV6ml9rER-4">
          <mxGeometry x="-0.08" y="-1" relative="1" as="geometry">
            <mxPoint y="-21" as="offset" />
          </mxGeometry>
        </mxCell>
        <mxCell id="OpJOFbmrDEtBV6ml9rER-16" style="edgeStyle=orthogonalEdgeStyle;rounded=0;orthogonalLoop=1;jettySize=auto;html=1;entryX=0;entryY=0.75;entryDx=0;entryDy=0;" edge="1" parent="1" source="OpJOFbmrDEtBV6ml9rER-3" target="OpJOFbmrDEtBV6ml9rER-10">
          <mxGeometry relative="1" as="geometry" />
        </mxCell>
        <mxCell id="OpJOFbmrDEtBV6ml9rER-3" value="Proxy Contract" style="rounded=0;whiteSpace=wrap;html=1;" vertex="1" parent="1">
          <mxGeometry x="290" y="240" width="120" height="60" as="geometry" />
        </mxCell>
        <mxCell id="OpJOFbmrDEtBV6ml9rER-10" value="New Logic Contract" style="rounded=0;whiteSpace=wrap;html=1;" vertex="1" parent="1">
          <mxGeometry x="540" y="340" width="120" height="60" as="geometry" />
        </mxCell>
      </root>
    </mxGraphModel>
  </diagram>
</mxfile>
